<?xml version="1.0" encoding="utf-8"?>
<?xml-stylesheet type="text/xsl" href="rss1.xsl"?>
<rss version="2.0" xmlns:atom="http://www.w3.org/2005/Atom" xmlns:content="http://purl.org/rss/1.0/modules/content/" xmlns:dc="http://purl.org/dc/elements/1.1/" xmlns:media="http://search.yahoo.com/mrss/">
<channel>
 <title>Getty</title>
 <link>http://www.gettyimg.com/</link>
 <atom:link href="http://www.gettyimg.com/" rel="self" type="application/rss+xml" />

 
                <item>
                <title><![CDATA[【Requests】[REQ VID] - Olivia Rodrigo - Today Show 2023]]></title>
                <link><![CDATA[https://sharemania.us/threads/olivia-rodrigo-today-show-2023.227984/]]></link>
                <description><![CDATA[<article>
<blockquote class="messageText SelectQuoteContainer ugc baseHtml">
Hi I hope someone can help to record HDTV Olivia Rodrigo's performance on Today Show, thank you <img src="styles/default/xenforo/smilies/big_smile-48.png" class="mceSmilie" alt=":)" title="Smile    :)"><img src="styles/default/xenforo/smilies/red_heart-48.png" class="mceSmilie" alt=":love:" title="hearts    :love:"><br>
<br>
<a href="https://www.today.com/popculture/olivia-rodrigo-today-what-you-need-know-t289415" target="_blank" class="externalLink" rel="nofollow">https://www.today.com/popculture/olivia-rodrigo-today-what-you-need-know-t289415</a>
<div class="messageTextEndMarker">&nbsp;</div>
</blockquote>
</article>]]></description>
                <author><![CDATA[zefole13]]></author>
                </item>

                
                <item>
                <title><![CDATA[【Requests】[REQ AUD] - NELL - Walk Through Me (FLAC)]]></title>
                <link><![CDATA[https://sharemania.us/threads/nell-walk-through-me-flac.227986/]]></link>
                <description><![CDATA[<article>
<blockquote class="messageText SelectQuoteContainer ugc baseHtml">
Hello?<br>
<br>
Does anyone have this album?<br>
<a href="https://www.qobuz.com/gb-en/album/walk-through-me-nell/ocs600h87s13b" target="_blank" class="externalLink" rel="nofollow">https://www.qobuz.com/gb-en/album/walk-through-me-nell/ocs600h87s13b</a><br>
<br>
Thank you! <img src="styles/default/xenforo/clear.png" class="mceSmilieSprite mceSmilie51" alt=":grinning:" title="Grinning    :grinning:">
<div class="messageTextEndMarker">&nbsp;</div>
</blockquote>
</article>]]></description>
                <author><![CDATA[qkrdkwntpdy]]></author>
                </item>

                
                <item>
                <title><![CDATA[【UPSCALED】Billie Eilish - idontwannabeyouanymore (Vertical Video) [4K AI Upscale | HEVC 10-bit | PCM 24-bit | DD+ Dolby Atmos]]]></title>
                <link><![CDATA[https://sharemania.us/threads/billie-eilish-idontwannabeyouanymore-vertical-video-4k-ai-upscale-hevc-10-bit-pcm-24-bit-dd-dolby-atmos.227987/]]></link>
                <description><![CDATA[<article>
<blockquote class="messageText SelectQuoteContainer ugc baseHtml">
<b><img src="https://images2.imgbox.com/aa/97/S5LdCMMj_o.jpg" class="bbCodeImage LbImage" alt="[​IMG]" data-url="https://images2.imgbox.com/aa/97/S5LdCMMj_o.jpg" style=""> <br>
<br>
Genre: <span style="color: #0059b3">Pop</span> <br>
Style: <span style="color: #0059b3">Indie Pop, Ballad</span> <br>
Year: <span style="color: #0059b3">2017</span> <br>
Video Source: <span style="color: #0059b3">Apple Music, thanks Brungor</span><br>
Audio Source: <span style="color: #0059b3">Qobuz &amp; Apple Music, thanks moi &amp; DanceDanceDance</span></b><br>
<br>
"<b>Idontwannabeyouanymore</b>" is a song by American singer Billie Eilish from her debut EP, <i>Don't Smile at Me</i> (2017). Eilish and her brother, Finneas O'Connell, co-wrote the song, with the latter solely handling the production. It was released through Darkroom and Interscope Records on July 21, 2017, as the fifth single from the EP. "Idontwannabeyouanymore" finds Eilish singing about self-doubt and negative self-esteem. Musically, the song is pop and R&amp;B track with a jazz and neo soul-influenced melody, that was heavily inspired by Eilish being depressed.<br>
<br>
Commercially, "Idontwannabeyouanymore" reached number 96 on the <i>Billboard</i> Hot 100. It has also received several certifications, including double-platinum awards from the Mexican Association of Producers of Phonograms and Videograms, A.C. (AMPROFON) and the Recording Industry Association of America (RIAA).<br>
<br>
In December 2017, Eilish premiered a Spotify-released vertical video to accompany the song. It was eventually released on YouTube on January 4, 2018. In the minimalistic visual, it portrays a silver-haired Eilish in an all-white room talking to her reflection in a mirror about how she hates herself. Shweta Patokar writing for <i>Republic World</i> commented that what makes the video scary is how "close it is to reality".<br>
<br>
<b>Release Info</b><br>
The video track is upscaled to 4K with Topaz Video AI and encoded to HEVC 10-bit.<br>
The PCM track is lossless (Qobuz HiRes 24-bit) and synced with Adobe Audition.<br>
The Dolby Atmos track is lossy (E-AC3), synced to the video track by muxing.<br>
The timed lyrics are synced &amp; edited. Enable the subtitles to see the lyrics.<br>
<br>
<div class="ToggleTriggerAnchor bbCodeSpoilerContainer">
<button type="button" class="button bbCodeSpoilerButton ToggleTrigger Tooltip JsOnly" data-target="> .SpoilerTarget"><span>Spoiler: <span class="SpoilerTitle">Media Info</span></span></button>
<div class="SpoilerTarget bbCodeSpoilerText">
<div class="bbCodeBlock bbCodeCode">
<div class="type">Code:</div>
<pre>General
Unique ID                      : 234926094955484809870120937464121295195 (0xB0BD1EBED370AB7AF4F0981C5E74815B)
Complete name                  : Billie Eilish - idontwannabeyouanymore (Vertical Video).mkv
Format                         : Matroska
Format version                 : Version 4 / Version 2
File size                      : 134 MiB
Duration                       : 3 min 24 s
Overall bit rate               : 5 490 kb/s
Frame rate                     : 23.976 FPS
Encoded date                   : 2023-09-05 00:29:09 UTC
Writing application            : mkvmerge v76.0 ('Celebration') 64-bit
Writing library                : libebml v1.4.4 + libmatroska v1.7.1

Video
ID                             : 1
Format                         : HEVC
Format/Info                    : High Efficiency Video Coding
Format profile                 : Main 10@L5@Main
Codec ID                       : V_MPEGH/ISO/HEVC
Duration                       : 3 min 24 s
Bit rate                       : 2 607 kb/s
Width                          : 1 240 pixels
Height                         : 2 160 pixels
Display aspect ratio           : 0.574
Frame rate mode                : Constant
Frame rate                     : 23.976 (24000/1001) FPS
Color space                    : YUV
Chroma subsampling             : 4:2:0
Bit depth                      : 10 bits
Bits/(Pixel*Frame)             : 0.041
Stream size                    : 63.6 MiB (47%)
Writing library                : x265 3.5+1-f0c1022b6:[Windows][GCC 10.2.0][64 bit] 10bit
Encoding settings              : cpuid=1111039 / frame-threads=6 / numa-pools=32 / wpp / no-pmode / no-pme / no-psnr / no-ssim / log-level=2 / input-csp=1 / input-res=1240x2160 / interlace=0 / total-frames=0 / level-idc=0 / high-tier=1 / uhd-bd=0 / ref=5 / no-allow-non-conformance / no-repeat-headers / annexb / no-aud / no-eob / no-eos / no-hrd / info / hash=0 / no-temporal-layers / open-gop / min-keyint=24 / keyint=240 / gop-lookahead=0 / bframes=8 / b-adapt=2 / b-pyramid / bframe-bias=0 / rc-lookahead=40 / lookahead-slices=0 / scenecut=40 / no-hist-scenecut / radl=0 / no-splice / no-intra-refresh / ctu=64 / min-cu-size=8 / rect / amp / max-tu-size=32 / tu-inter-depth=3 / tu-intra-depth=3 / limit-tu=4 / rdoq-level=2 / dynamic-rd=0.00 / no-ssim-rd / signhide / no-tskip / nr-intra=0 / nr-inter=0 / no-constrained-intra / strong-intra-smoothing / max-merge=4 / limit-refs=1 / limit-modes / me=3 / subme=4 / merange=57 / temporal-mvp / no-frame-dup / no-hme / weightp / weightb / no-analyze-src-pics / deblock=0:0 / sao / no-sao-non-deblock / rd=6 / selective-sao=4 / no-early-skip / rskip / no-fast-intra / no-tskip-fast / no-cu-lossless / b-intra / no-splitrd-skip / rdpenalty=0 / psy-rd=2.00 / psy-rdoq=1.00 / no-rd-refine / no-lossless / cbqpoffs=0 / crqpoffs=0 / rc=crf / crf=18.0 / qcomp=0.60 / qpstep=4 / stats-write=0 / stats-read=0 / ipratio=1.40 / pbratio=1.30 / aq-mode=2 / aq-strength=1.00 / cutree / zone-count=0 / no-strict-cbr / qg-size=32 / no-rc-grain / qpmax=69 / qpmin=0 / no-const-vbv / sar=255 / sar-width / : / sar-height=16416:16415 / overscan=0 / videoformat=5 / range=0 / colorprim=1 / transfer=1 / colormatrix=1 / chromaloc=0 / display-window=0 / cll=0,0 / min-luma=0 / max-luma=1023 / log2-max-poc-lsb=8 / vui-timing-info / vui-hrd-info / slices=1 / no-opt-qp-pps / no-opt-ref-list-length-pps / no-multi-pass-opt-rps / scenecut-bias=0.05 / no-opt-cu-delta-qp / no-aq-motion / no-sbrc / no-hdr10 / no-hdr10-opt / no-dhdr10-opt / no-idr-recovery-sei / analysis-reuse-level=0 / analysis-save-reuse-level=0 / analysis-load-reuse-level=0 / scale-factor=0 / refine-intra=0 / refine-inter=0 / refine-mv=1 / refine-ctu-distortion=0 / no-limit-sao / ctu-info=0 / no-lowpass-dct / refine-analysis-type=0 / copy-pic=1 / max-ausize-factor=1.0 / no-dynamic-refine / no-single-sei / no-hevc-aq / no-svt / no-field / qp-adaptation-range=1.00 / scenecut-aware-qp=0conformance-window-offsets / right=0 / bottom=0 / decoder-max-rate=0 / no-vbv-live-multi-pass / no-mcstf
Default                        : Yes
Forced                         : No
Color range                    : Limited
Color primaries                : BT.709
Transfer characteristics       : BT.709
Matrix coefficients            : BT.709

Audio #1
ID                             : 2
Format                         : PCM
Format settings                : Little / Signed
Codec ID                       : A_PCM/INT/LIT
Duration                       : 3 min 24 s
Bit rate mode                  : Constant
Bit rate                       : 2 117 kb/s
Channel(s)                     : 2 channels
Sampling rate                  : 44.1 kHz
Frame rate                     : 25.002 FPS (1764 SPF)
Bit depth                      : 24 bits
Stream size                    : 51.6 MiB (39%)
Title                          : Lossless 24-bit
Language                       : English
Default                        : Yes
Forced                         : No

Audio #2
ID                             : 3
Format                         : E-AC-3 JOC
Format/Info                    : Enhanced AC-3 with Joint Object Coding
Commercial name                : Dolby Digital Plus with Dolby Atmos
Codec ID                       : A_EAC3
Duration                       : 3 min 23 s
Bit rate mode                  : Constant
Bit rate                       : 768 kb/s
Channel(s)                     : 6 channels
Channel layout                 : L R C LFE Ls Rs
Sampling rate                  : 48.0 kHz
Frame rate                     : 31.250 FPS (1536 SPF)
Compression mode               : Lossy
Delay relative to video        : 538 ms
Stream size                    : 18.6 MiB (14%)
Title                          : Dolby Digital Plus with Dolby Atmos
Language                       : English
Service kind                   : Complete Main
Default                        : No
Forced                         : No
Complexity index               : 16
Number of dynamic objects      : 15
Bed channel count              : 1 channel
Bed channel configuration      : LFE

Text
ID                             : 4
Format                         : UTF-8
Codec ID                       : S_TEXT/UTF8
Codec ID/Info                  : UTF-8 Plain Text
Duration                       : 2 min 59 s
Bit rate                       : 38 b/s
Frame rate                     : 0.172 FPS
Count of elements              : 31
Stream size                    : 877 Bytes (0%)
Title                          : Lyrics
Language                       : English
Default                        : No
Forced                         : No
</pre>
</div></div>
</div><br>
<div class="bbCodeBlock bbCodeVfcHH HiddenContent">
<div class="attribution type">Hidden Content:</div>
<blockquote>You must reply before you can see the hidden data contained here.</blockquote>
</div>
<div class="messageTextEndMarker">&nbsp;</div>
</blockquote>
</article>]]></description>
                <author><![CDATA[ADHDerby]]></author>
                </item>

                
                <item>
                <title><![CDATA[【Music Videos】The Black Eyed Peas - Shut Up (Xtendz - 1080 (Explicit) [Extended]) (VjPro/Smashvision Pool)]]></title>
                <link><![CDATA[https://sharemania.us/threads/the-black-eyed-peas-shut-up-xtendz-1080-explicit-extended-vjpro-smashvision-pool.227985/]]></link>
                <description><![CDATA[<article>
<blockquote class="messageText SelectQuoteContainer ugc baseHtml">
<b><img src="https://i.ibb.co/r6wnGJk/The-Black-Eyed-Peas-Shut-Up-Xtendz-1080-Explicit-Extended-mp4.jpg" class="bbCodeImage LbImage" alt="[​IMG]" data-url="https://i.ibb.co/r6wnGJk/The-Black-Eyed-Peas-Shut-Up-Xtendz-1080-Explicit-Extended-mp4.jpg" style=""> <br>
The Black Eyed Peas - Shut Up (Xtendz - 1080 (Explicit) [Extended])</b><br>
<b>Year: 2003<br>
BPM: 113.00<br>
Grouping Dirty<br>
<span style="font-size: 18px">Genre: Old School / Classics</span></b><br>
Rip from VjPro/Smashvision With Virtual DJ 2023<br>
<b><br>
[/URL]
<div class="bbCodeBlock bbCodeVfcHH HiddenContent">
<div class="attribution type">Hidden Content:</div>
<blockquote>You must reply before you can see the hidden data contained here.</blockquote>
</div></b>
<div class="messageTextEndMarker">&nbsp;</div>
</blockquote>
</article>]]></description>
                <author><![CDATA[gamerfronts]]></author>
                </item>

                </channel></rss>